<svg viewBox="0 0 200 200" xmlns="http://www.w3.org/2000/svg">
  <!-- Bitcoin Holding Symbol Only -->
  <defs>
    <linearGradient id="orangeGradient" x1="0%" y1="0%" x2="100%" y2="100%">
      <stop offset="0%" style="stop-color:#ff6600;stop-opacity:1" />
      <stop offset="100%" style="stop-color:#e55a00;stop-opacity:1" />
    </linearGradient>
  </defs>
  
  <!-- Primeira seta (topo) - Laranja -->
  <polygon points="100,20 160,60 140,72 100,42 60,72 40,60" fill="url(#orangeGradient)"/>
  
  <!-- Segunda seta - Bege claro -->
  <polygon points="100,42 150,77 135,87 100,62 65,87 50,77" fill="#f2ebe3"/>
  
  <!-- Terceira seta - Branco -->
  <polygon points="100,62 140,92 125,102 100,82 75,102 60,92" fill="#ffffff"/>
  
  <!-- Quarta seta - Bege médio -->
  <polygon points="100,82 130,107 117,117 100,102 83,117 70,107" fill="#e8ddd0"/>
  
  <!-- Quinta seta - Branco -->
  <polygon points="100,102 120,122 110,132 100,122 90,132 80,122" fill="#ffffff"/>
  
  <!-- Sexta seta (base) - Bege escuro -->
  <polygon points="100,122 110,137 100,142 90,137" fill="#d6c8b5"/>
</svg>